<?xml version="1.0" encoding="utf-8"?>

<svg xmlns="http://www.w3.org/2000/svg" xmlns:xlink="http://www.w3.org/1999/xlink" 
  height="512" width="512" viewBox="0 0 512 512">

  <!-- 背景 -->
  <image href="./character_1.png" height="512" width="512" />
  <rect width="512" height="512" stroke="red" fill="rgba(255,255,255,0.95)" opacity="0.95" ></rect>

  <!-- 座標線 -->
  <text x="2" y="12" font-size="12" text-anchor="start" fill="red">0</text>
  <path d="M256  64 H0 H512" stroke="lightgray" fill="white"></path>
  <text x="2" y="68" font-size="12" text-anchor="start" fill="red">64</text>
  <path d="M256 128 H0 H512" stroke="lightgray" fill="white"></path>
  <text x="2" y="132" font-size="12" text-anchor="start" fill="red">128</text>
  <path d="M256 192 H0 H512" stroke="lightgray" fill="white"></path>
  <text x="2" y="196" font-size="12" text-anchor="start" fill="red">192</text>
  <path d="M256 256 H0 H512" stroke="lightgray" fill="white"></path>
  <text x="2" y="260" font-size="12" text-anchor="start" fill="red">256</text>
  <path d="M256 320 H0 H512" stroke="lightgray" fill="white"></path>
  <text x="2" y="324" font-size="12" text-anchor="start" fill="red">320</text>
  <path d="M256 384 H0 H512" stroke="lightgray" fill="white"></path>
  <text x="2" y="388" font-size="12" text-anchor="start" fill="red">384</text>
  <path d="M256 448 H0 H512" stroke="lightgray" fill="white"></path>
  <text x="2" y="452" font-size="12" text-anchor="start" fill="red">448</text>
  <text x="2" y="510" font-size="12" text-anchor="start" fill="red">512</text>

  <path d="M64  0 V512" stroke="lightgray" fill="white"></path>
  <text x="58" y="12" font-size="12" text-anchor="start" fill="red">64</text>
  <path d="M128  0 V512" stroke="lightgray" fill="white"></path>
  <text x="118" y="12" font-size="12" text-anchor="start" fill="red">128</text>
  <path d="M195  0 V512" stroke="lightgray" fill="white"></path>
  <text x="186" y="12" font-size="12" text-anchor="start" fill="red">192</text>
  <path d="M256  0 V512" stroke="lightgray" fill="white"></path>
  <text x="246" y="12" font-size="12" text-anchor="start" fill="red">256</text>
  <path d="M320  0 V512" stroke="lightgray" fill="white"></path>
  <text x="310" y="12" font-size="12" text-anchor="start" fill="red">320</text>
  <path d="M384  0 V512" stroke="lightgray" fill="white"></path>
  <text x="374" y="12" font-size="12" text-anchor="start" fill="red">384</text>
  <path d="M448  0 V512" stroke="lightgray" fill="white"></path>
  <text x="438" y="12" font-size="12" text-anchor="start" fill="red">448</text>
  <text x="492" y="12" font-size="12" text-anchor="start" fill="red">512</text>

  <!-- 中心十字標 -->
  <path d="M256 256 V270 V242 M256 256 H270 H242" stroke="black" fill="white"></path>
  <text x="254" y="250" font-size="16" text-anchor="middle" fill="red">(256, 256)</text>

  
  <!-- 臉-外 -->
  <ellipse stroke="black" fill="#00a0e9"  stroke-width="3" cx="266" cy="183" rx="186" ry="176"/>
  <!-- 臉-內 -->
  <ellipse stroke="black" fill="white"  stroke-width="3" cx="266" cy="200" rx="160" ry="160"/>
  
  
  <!-- 左鬍鬚 -->
  <path d="M220 155 H123" stroke="black" stroke-width="3"/> 
  <path d="M220 136 L135 113" stroke="black" stroke-width="3"/>
  <path d="M220 177 L126 193" stroke="black" stroke-width="3"/>
  <!-- 右鬍鬚  -->
  <path d="M409 154 H309" stroke="black" stroke-width="3"/> 
  <path d="M306 136 L397 111" stroke="black" stroke-width="3"/>
  <path d="M309 177 L407 191" stroke="black" stroke-width="3"/>
   <!-- 嘴巴 --> 
  <path d="M127 210 Q 256 185, 400 210 C330 370,198 356,128,210" stroke="black" fill="#d0112b" 
  stroke-width="3"/>
  <path d="M192 295 Q 226 250, 265 280 Q 310 250, 340 295 Q 275 356, 192 295" stroke="black" fill="#fa4c06" 
  stroke-width="3"/>
  <!-- 中線 -->
  <path d="M265 100 V197" stroke="black" stroke-width="3"/> 
  <!-- 眼睛 -->
  <ellipse stroke="black" fill="white"  stroke-width="3" cx="228" cy="60" rx="37" ry="45"/>
  <ellipse stroke="black" fill="white"  stroke-width="3" cx="305" cy="60" rx="37" ry="45"/>  
  <ellipse stroke="black" fill="black"  stroke-width="3" cx="245" cy="63" rx="10" ry="14"/>
  <ellipse stroke="black" fill="black"  stroke-width="3" cx="287" cy="63" rx="10" ry="14"/>
  <ellipse stroke="white" fill="white"  stroke-width="3" cx="246" cy="61" rx="5" ry="7"/>
  <ellipse stroke="white" fill="white"  stroke-width="3" cx="287" cy="61" rx="5" ry="7"/>
  <!-- 鼻子  -->
  <ellipse stroke="black" fill="#d0112b"  stroke-width="3" cx="265" cy="110" rx="25" ry="20"/>




</svg>


    