<?xml version="1.0" encoding="utf-8"?>
<!-- Generator: Adobe Illustrator 24.3.0, SVG Export Plug-In . SVG Version: 6.00 Build 0)  -->
<svg version="1.0" id="Layer_1" xmlns="http://www.w3.org/2000/svg" xmlns:xlink="http://www.w3.org/1999/xlink" x="0px" y="0px"
	 viewBox="0 0 1200 1200" style="enable-background:new 0 0 1200 1200;" xml:space="preserve">
<style type="text/css">
	.st0{display:none;fill:#60504B;}
	.st1{display:none;fill:#FFFFFF;}
	.st2{display:none;fill:#B1C9C3;}
	.st3{display:none;}
	.st4{display:inline;fill:#60504B;}
	.st5{display:inline;fill:#DF7977;}
	.st6{display:inline;}
	.st7{display:none;fill:#BF4C68;}
	.st8{display:none;fill:none;}
	.st9{display:none;fill:#F3AF9D;}
	.st10{display:none;fill:#DD9B8E;}
	.st11{display:inline;fill:#F3AF9D;}
	.st12{display:none;fill:#2C323A;}
	.st13{display:none;fill:#DF7977;}
	.st14{display:none;fill:#2C323A;stroke:#2C323A;stroke-width:2;stroke-miterlimit:10;}
	.st15{fill:#F3AF9D;}
	.st16{display:none;fill:#E094A3;}
	.st17{fill-rule:evenodd;clip-rule:evenodd;fill:#00AEEF;}
	.st18{fill-rule:evenodd;clip-rule:evenodd;fill:#282828;}
	.st19{fill-rule:evenodd;clip-rule:evenodd;fill:#FFFFFF;}
	.st20{fill:#5E5F6D;}
	.st21{fill:#43465E;}
	.st22{fill:#6B6C7C;}
	.st23{fill:#838597;}
	.st24{fill:#1E243A;}
	.st25{fill:#E8A400;}
	.st26{fill:#E9A097;}
	.st27{fill:#4C3D42;}
	.st28{fill:#FFFFFF;}
	.st29{fill:none;stroke:#000000;stroke-miterlimit:10;}
</style>
<g id="illustration_1_">
	<path class="st0" d="M647.9,923.2V970c0,48.8,55.4,50.3,55.4,4.5v-51.8L647.9,923.2z"/>
	<rect x="660.3" y="944.5" class="st1" width="30.6" height="4.4"/>
	<rect x="660.3" y="952.9" class="st1" width="30.6" height="4.4"/>
	<rect x="660.3" y="961.4" class="st1" width="30.6" height="4.4"/>
	<path class="st0" d="M544.6,923.2V970c0,48.8,55.4,50.3,55.4,4.5v-51.8L544.6,923.2z"/>
	<path class="st2" d="M518.9,549c0,66.4,0,148.9,0,228.2c0,55.8,0,110,0,155.8c56.6,0,51.8,0,92.7,0c0-46.8,0-101.4,0-154.5
		c0-75.9,0-148.8,0-191.6c5.9,0,20.5,0,25.9,0c0,41.3,0,115.8,0,191.6c0,54.9,0,110.4,0,154.5c45,0,35.6,0,92.7,0
		c0-43,0-97.5,0-154.5c0-79.5,0-164,0-229.5H518.9z"/>
	<rect x="557" y="944.5" class="st1" width="30.6" height="4.4"/>
	<rect x="557" y="952.9" class="st1" width="30.6" height="4.4"/>
	<rect x="557" y="961.4" class="st1" width="30.6" height="4.4"/>
	<g class="st3">
		<path class="st4" d="M675,319.9c-27.8-13.5-68.3-15.8-101.3-0.1c-5.1-10.8-14-45.8-13.1-80.4c1.1-40.5,15.5-80.5,65.3-80.4
			c47.8,0,61.8,39.1,62.5,79.7C688.4,271.8,675,319.9,675,319.9z"/>
		<circle class="st5" cx="686.2" cy="233.8" r="12.1"/>
		<circle class="st5" cx="563.6" cy="233.8" r="12.1"/>
		<circle id="jawMid_2_" class="st6" cx="625.5" cy="284.1" r="0.8"/>
		<circle id="rightJaw7_2_" class="st6" cx="614.6" cy="282.1" r="0.8"/>
		<circle id="leftJaw7_2_" class="st6" cx="636.4" cy="282.1" r="0.8"/>
		<circle id="rightJaw3_2_" class="st6" cx="580.3" cy="226.6" r="0.8"/>
		<circle id="rightJaw2_2_" class="st6" cx="580.3" cy="217.1" r="0.8"/>
		<circle id="leftJaw3_2_" class="st6" cx="668.5" cy="227" r="0.8"/>
		<circle id="leftJaw2_2_" class="st6" cx="668.5" cy="217.4" r="0.8"/>
		<circle id="topMid_2_" class="st6" cx="624.7" cy="166" r="0.8"/>
		<circle id="leftTop0_2_" class="st6" cx="642.4" cy="168.5" r="0.8"/>
		<circle id="rightTop0_2_" class="st6" cx="606.8" cy="168.5" r="0.8"/>
		<path class="st4" d="M651.6,162.2c1.3-3.6,2.1-7.4,2.5-11.2c2.6,3.1,3.8,7.4,3.2,11.4c-0.1,0.7-0.3,1.5-0.7,2.1
			c-0.7,0.9-1.9,1.2-3,1.4c-1.8,0.4-3.6,0.8-5.5,1C649.7,165.5,650.9,164.2,651.6,162.2z"/>
		<path class="st4" d="M650.5,166.7c5.8-0.4,10.8-5.7,11-11.5c2.3,1,3.4,3.9,2.7,6.3c-0.7,2.4-2.9,4.2-5.3,4.9
			c-2.4,0.7-5,0.4-7.4-0.3"/>
	</g>
	<path class="st7" d="M501.5,564.2c-1.3-73.2,11.7-128.9,32.3-167.4c12.6-23.6,28-40.7,44.8-51.6c14.7-9.5,30.5-14.1,46.2-13.9
		c15.6,0.2,31.3,5.2,45.9,14.8c16.5,10.9,31.8,27.8,44.3,50.7c21.3,38.8,34.7,94.8,33.1,167.4H501.5L501.5,564.2z"/>
	<line class="st8" x1="741.4" y1="564.8" x2="508.6" y2="564.8"/>
	<ellipse class="st1" cx="625.4" cy="351.3" rx="22" ry="16.3"/>
	<path class="st9" d="M616.2,277.5"/>
	<path class="st9" d="M614.2,265.7h20.9c0,0,4.3,61.7,5.7,85.2c-2.1,9.7-9.1,11.3-15.5,11.1c-8.2-0.2-15.9-4.7-17.1-12.5
		L614.2,265.7z"/>
	<path class="st10" d="M614.2,265.7h20.9c1.9,19-21.7,83.8-26.9,83.8L614.2,265.7z"/>
	<g class="st3">
		<ellipse class="st11" cx="625.2" cy="228.3" rx="56.4" ry="57.6"/>
		<circle id="jawMid_1_" class="st6" cx="625.5" cy="284.1" r="0.8"/>
		<circle id="rightJaw7_1_" class="st6" cx="614.6" cy="282.1" r="0.8"/>
		<circle id="leftJaw7_1_" class="st6" cx="636.4" cy="282.1" r="0.8"/>
		<circle id="rightJaw3_1_" class="st6" cx="580.3" cy="226.6" r="0.8"/>
		<circle id="rightJaw2_1_" class="st6" cx="580.3" cy="217.1" r="0.8"/>
		<circle id="leftJaw3_1_" class="st6" cx="668.5" cy="227" r="0.8"/>
		<circle id="leftJaw2_1_" class="st6" cx="668.5" cy="217.4" r="0.8"/>
		<circle id="topMid_3_" class="st6" cx="624.7" cy="166" r="0.8"/>
		<circle id="leftTop0_3_" class="st6" cx="642.4" cy="168.5" r="0.8"/>
		<circle id="rightTop0_3_" class="st6" cx="606.8" cy="168.5" r="0.8"/>
	</g>
	<g>
		<path class="st12" d="M578.7,221.9c3.1-6.1,13.1-6.7,21.1-6.1c0.7,2.3,0.7,3.8-0.1,3.7C596.6,219.4,589.5,215.6,578.7,221.9z"/>
		<circle id="rightBrow1_1_" cx="592.5" cy="203.2" r="0.8"/>
		<circle id="rightBrow4_1_" cx="615.8" cy="206.2" r="0.8"/>
		<circle id="rightBrow3_1_" cx="606" cy="202.2" r="0.8"/>
		<circle id="rightBrow0_1_" cx="588.5" cy="206.9" r="0.8"/>
		<circle id="rightBrow2_1_" cx="598.7" cy="202.2" r="0.8"/>
	</g>
	<g>
		<path class="st12" d="M666.7,220.8c-7.5-3.4-8.8-2.2-19-1c-0.3-0.8-0.5-1.7-0.1-4c6,0.5,16-2.3,21.1,6.1
			C668,221.5,667.4,221.1,666.7,220.8z"/>
		<circle id="leftBrow1_1_" cx="656.2" cy="203.6" r="0.8"/>
		<circle id="leftBrow4_1_" cx="632.6" cy="205.7" r="0.8"/>
		<circle id="leftBrow3_1_" cx="642.6" cy="202.5" r="0.8"/>
		<circle id="leftBrow0_1_" cx="660.2" cy="206.5" r="0.8"/>
		<circle id="leftBrow2_1_" cx="649.9" cy="202.1" r="0.8"/>
	</g>
	<g>
		<ellipse class="st13" cx="590.1" cy="247.5" rx="7.8" ry="6.2"/>
		<ellipse class="st12" cx="593" cy="231.6" rx="3.6" ry="5.8"/>
		<circle id="rightEye0_1_" cx="594.7" cy="215.1" r="0.8"/>
		<circle id="rightEye1_1_" cx="599.9" cy="211.4" r="0.8"/>
		<circle id="rightEye5_1_" cx="599.9" cy="217.4" r="0.8"/>
		<circle id="rightEye2_1_" cx="606.2" cy="211.4" r="0.8"/>
		<circle id="rightEye3_1_" cx="611.4" cy="215.6" r="0.8"/>
		<circle id="rightEye4_1_" cx="606.2" cy="216.6" r="0.8"/>
	</g>
	<g>
		<ellipse class="st12" cx="654.8" cy="231.6" rx="3.6" ry="5.8"/>
		<ellipse class="st13" cx="659.2" cy="247.5" rx="7.8" ry="6.2"/>
		<circle id="leftEye0_1_" cx="654.3" cy="215.1" r="0.8"/>
		<circle id="leftEye1_1_" cx="649.1" cy="211.4" r="0.8"/>
		<circle id="leftEye5_1_" cx="649.1" cy="217.4" r="0.8"/>
		<circle id="leftEye2_1_" cx="642.8" cy="211.4" r="0.8"/>
		<circle id="leftEye3_1_" cx="637.6" cy="215.6" r="0.8"/>
		<circle id="leftEye4_1_" cx="642.8" cy="216.6" r="0.8"/>
	</g>
	<g>
		<path id="rightMiddleLip_2_" d="M610.8,254.6c0.4,0,0.8,0.4,0.8,0.8s-0.4,0.8-0.8,0.8s-0.8-0.4-0.8-0.8S610.4,254.6,610.8,254.6z"
			/>
		<circle id="upperLipBottomMid_1_" cx="624.5" cy="255.1" r="0.8"/>
		<circle id="rightUpperLipBottom1_1_" cx="620.6" cy="254.6" r="0.8"/>
		<path id="leftMiddleLip_2_" d="M638.2,254.6c0.4,0,0.8,0.4,0.8,0.8s-0.4,0.8-0.8,0.8s-0.8-0.4-0.8-0.8S637.8,254.6,638.2,254.6z"
			/>
		<circle id="leftUpperLipBottom1_1_" cx="628.4" cy="254.6" r="0.8"/>
		<path class="st14" d="M611.6,255.4c0,0,7.4-0.2,12.9-0.2s13.9-0.1,13.9-0.1s-6.1,4-13.9,4C616.6,259.1,611.6,255.4,611.6,255.4z"
			/>
		<circle id="lowerLipTopMid_2_" cx="624.5" cy="258.1" r="0.8"/>
		<circle id="rightLowerLipTop0_2_" cx="620.6" cy="257.4" r="0.8"/>
		<circle id="leftLowerLipTop0_2_" cx="628.4" cy="257.4" r="0.8"/>
	</g>
	<g class="st3">
		<path class="st4" d="M636.7,182.2c-0.2,8.5-8.4,18.8-25.9,23.3c-2.1,0.5,9-8.2,13.7-18.5c-19.7,23.6-29.8,27.3-63.8,25.6
			c5.1-22.7,26.3-53.3,63.3-53.7s57.1,21.6,65.1,56.3C667.2,210.1,649.5,212.2,636.7,182.2z"/>
		<circle id="jawMid_3_" class="st6" cx="625.5" cy="284.1" r="0.8"/>
		<circle id="rightJaw7_3_" class="st6" cx="614.6" cy="282.1" r="0.8"/>
		<circle id="leftJaw7_3_" class="st6" cx="636.4" cy="282.1" r="0.8"/>
		<circle id="rightJaw3_3_" class="st6" cx="580.3" cy="226.6" r="0.8"/>
		<circle id="rightJaw2_3_" class="st6" cx="580.3" cy="217.1" r="0.8"/>
		<circle id="leftJaw3_3_" class="st6" cx="668.5" cy="227" r="0.8"/>
		<circle id="leftJaw2_3_" class="st6" cx="668.5" cy="217.4" r="0.8"/>
		<circle id="topMid_1_" class="st6" cx="624.7" cy="166" r="0.8"/>
		<circle id="leftTop0_1_" class="st6" cx="642.4" cy="168.5" r="0.8"/>
		<circle id="rightTop0_1_" class="st6" cx="606.8" cy="168.5" r="0.8"/>
	</g>
	<path class="st15" d="M968.4,381.4l17-6.8c0,0,6.1,5.5,13,11.2s-4.7,18.4-15.3,10.6C972.4,388.6,968.4,381.4,968.4,381.4z"/>
	<path class="st16" d="M410.4,322.3l3,56.8c58.9,0.3,93.5-2.3,119.3,17.7l48.7-50.2C527.1,319.9,466.4,318.9,410.4,322.3z"/>
	<path class="st16" d="M670.3,345.6l43.3,53.2c27-16.2,67.7-16.3,126.6-16.7v-56.8C784.2,321.9,741,314.9,670.3,345.6z"/>
	<path class="st15" d="M415.6,328.9c-47.7,2.7-123.1,8.9-160.2,14.2c-37.1,5.3-40.1,40.1,5.3,39.5s95.2-3.5,159.7-12.1L415.6,328.9z
		"/>
	<path class="st15" d="M280.2,381.4l-17-6.8c0,0-6.1,5.5-13,11.2s4.7,18.4,15.3,10.6C276.2,388.6,280.2,381.4,280.2,381.4z"/>
	<path class="st15" d="M834.3,373.5c64.5,8.6,113.3,11.5,158.7,12.1s42.4-34.2,5.3-39.5c-37.1-5.3-114.5-11.5-162.2-14.2
		L834.3,373.5z"/>
	<g>
		<circle id="nose1_1_" cx="623.7" cy="216.1" r="0.8"/>
		<circle id="nose0_1_" cx="623.7" cy="210.3" r="0.8"/>
		<circle id="nose3_1_" cx="623.7" cy="228.7" r="0.8"/>
		<circle id="rightNose0_1_" cx="613" cy="233.2" r="0.8"/>
		<circle id="rightNose1_1_" cx="618.2" cy="233.2" r="0.8"/>
		<circle id="nose2_1_" cx="623.7" cy="221.6" r="0.8"/>
		<circle id="nose4_1_" cx="623.7" cy="234" r="0.8"/>
		<circle id="leftNose0_1_" cx="634.1" cy="233.2" r="0.8"/>
		<circle id="leftNose1_1_" cx="629.3" cy="233.2" r="0.8"/>
		<path class="st14" d="M622.4,232.8c-1.2,0-4.6,1.6-5.8,5.2c-0.2,1.2,0.6,5.8,6,4.1c-0.1-1-4.7-1.1-4.5-3.7
			C618.4,236.6,620.1,236.6,622.4,232.8z"/>
	</g>
	<g>
		<polygon class="st17" points="541.1,561.2 549,564.2 585.8,564.8 680.5,564.8 702.7,565.3 710.6,558.3 715.4,570.2 707.7,580 
			711.1,600 717.8,623.7 733.9,719.4 697.8,731.3 636.8,733.3 635.9,726.3 633.2,692.3 615.9,691.5 613.3,707.2 613.3,723.2 
			611.2,735.7 575.4,737.6 521.7,729.7 518.8,717 524.2,709.3 529.3,634.1 531.3,621.4 546.9,587.3 534.8,566.9 		"/>
		<path class="st18" d="M593,555.9c-2.6,5.7-3.9,9.3-3,18.1l-6.9,0.7c-5.4,16.2-4.7,39.3-16.2,49.1c-8.1,6.9-22.7,4.9-37.2,7.7
			c-3.5,25.5-3.8,54.7-5.6,79.5c-1.4,1.3-2.9,3.5-4.5,4.6c-1,4.9,2.1,14,2.1,14c-7.5-5.3-8.3-20.6-1.1-21.4
			c1.2-25.8,1.1-56.3,4.7-80.5c11.8-3.5,28.4-3,36.7-9.5c9.9-11.5,12.5-29.7,15.9-47.5c1.1-1.3,3.3-1.7,4.7-2.9
			C580.3,558.8,588.4,551.5,593,555.9z"/>
		<path class="st18" d="M544.2,560.9c0,0-5.2-2-6.3,6.5c-0.7,3.1,4.9,9.5,4.9,9.5l3.2-12.5c10,1.2,25.5-1.1,30.9,2
			c0,0-18.7,2.7-26.6,3.5c-2.8,4.7-1.1,15.9-2.4,21.7c3.6,2.4,14.1,3.9,14.1,3.9s-10.7,1.4-14.6,0.4c0.1,4.7-11.5,23.7-16.1,25.4
			c1.3-10.2,11.7-24.4,11.1-36.7c-3.2-3.7-8.6-6.7-9.9-14.5C530.8,560.2,536.6,554.7,544.2,560.9z"/>
		<path class="st18" d="M656.2,564.2l-1.5-6.8c7.1,0.7,12.6,13.6,2.9,19.8c0,0-0.1-5.2-1.3-10.9c-9.2,2.1-23.6,1.8-32.9,1.8
			c1,25.3-3.1,61.4,0.2,81.4c2,6.9,12,7.6,12,7.6l0,0c0,0-6.8,0.3-10.5-1.5c-6.9-4.3-6.2-20-6.9-32.7c-1.1-18.6,2.4-34.3,2.8-54.2
			c0,0-24.8-1.7-27.4-3.5c0,0,16.5-1.2,24.1-1.1C628.4,564.4,646.4,563.6,656.2,564.2L656.2,564.2L656.2,564.2z"/>
		<path class="st18" d="M712.5,581.4c-1,12.5,4.8,27.6,3.6,37.7c0,0-3.4-13.2-5.1-19.1c-2.7-9.4-4.5-22-5.5-33.3
			c-11.6-0.4-38.4,1.3-40.9-0.8c2.1-1.3,37.2-3.5,45.1-2.1c0,3.2,1.3,6.3,1.3,9.5c5.9-3.8,1.5-13.2-1.9-15.7l0,0
			C721.2,561.6,717.5,579.3,712.5,581.4z"/>
		<path class="st18" d="M664,576.1c16,1.6,6,30.3,12.6,40.6c6.4,10,30.3,4.4,42.5,4.9c8,8.7,3.5,20.3,4.6,32.7
			c0.4,4.7,3.2,9.1,4.2,14.2c1.8,9.1,2,19.1,2.7,27.9c0.1,1.7,2.8,3.2,3,4.8c0.2,2,0.5,3.9,0.9,5.7c0.9,4.7,1.3,14.6,1.3,14.6
			c-4.6,3.8-29.4,10.1-36.6,11.3c-22.5,3.8-41.3,2.8-64.1,4.3c-3-4.4-5.6-8.5-4.3-13.5c0.9-3.5,4.1-4.4,4.7-7.3
			c1.2-5.5-4-19.6-4-19.6c-2.7-0.4-10.5-1.1-12,1c-0.6,6.5-4.9,14.8-4.5,22.1c0.2,4.1,3.4,8,3.1,11.4c-0.3,3.8-3.8,6.1-5.7,8.8
			c-25.5,1.5-48.1-2-69.2-5.3c-6.1-0.9-19.3-4-19.3-4s10.1,0.6,14,1.2c21.7,3.1,46.7,3.1,73,2.7c3.7-4.2-0.3-11.9-0.5-18.1
			c-0.3-8.8,2.2-18.5,5.5-25.1c5.8,0.8,13.6-0.4,18.6,1.1c5.8,7.3,6.2,20.6,6.3,31.3c-0.5,1.7-3.5,1.4-4.9,2.4l0.9,7
			c30.1,0.2,70.2-5.5,94.9-14.6c-1-4-1.5-10.3-2-14.5c-0.1-1.2-2.8,0-2.9-1.2c-0.9-10.5-0.9-21.4-2.8-32c-0.9-5.2-4.9-10.1-5.5-15.4
			c-0.9-8.6,0.5-20.5-2.2-28.9c-17.6-1.8-35.3,5.8-42.6-6.2c-5.8-9.6-5.2-23.9-8.1-38.9C664.9,577.3,664,576.1,664,576.1z"/>
		<path class="st18" d="M633.5,603.8c0,6,0.6,31.9,0.6,31.9c-3.7-14.8-2.7-41.7-2-57.7C632.5,578,633.5,596.7,633.5,603.8z"/>
		<path class="st18" d="M588.1,586.7c0,0,2.7,12.3-3.2,12.7C584.6,594,586.2,590.2,588.1,586.7z"/>
		<path class="st18" d="M659.6,590.4c1.1-0.2,3.3,8.9,2.3,11.1C656.8,602.7,657.7,592.2,659.6,590.4z"/>
		<path class="st18" d="M584.6,605.3c2.1-0.6,1.5,11.1-3.8,11.8C580.3,612.1,584,604.1,584.6,605.3z"/>
		<path class="st18" d="M662.1,608c0.4,0,0.9,0,1.4,0c3.4,0.6,5.9,8.1,2.9,10.8C663,617.5,661.1,611.6,662.1,608z"/>
		<path class="st18" d="M579.8,621.6c-0.2,4.8-1.5,8.5-5.9,9.7C571.6,628.3,574.1,621.6,579.8,621.6z"/>
		<path class="st18" d="M668.4,625.7c4.6-0.2,8.1,3.8,6.8,7.3C670.8,632.8,667.3,629.5,668.4,625.7z"/>
		<path class="st18" d="M569.8,630.8c0.3,5.5-8,8.7-12.1,6.7C559.3,633.3,563.9,631.5,569.8,630.8z"/>
		<path class="st18" d="M553,637c-3.8,5.2-8.9,4.6-11.8,2.3C541.4,637.4,550.5,634.7,553,637z"/>
		<path class="st18" d="M537.4,639c-4.5,4.6-9.6,3.3-12.1,0.6C525.7,637.7,535.2,636.4,537.4,639z"/>
		<path class="st18" d="M722.5,633.1c-4.3,4.7-8.1,3.5-9.7,0.9C713.4,632.1,721.1,630.6,722.5,633.1z"/>
		<path class="st18" d="M693.1,636.2c-0.4,0.5-10.6,1.8-12.6-0.8C681.7,630.5,691.1,632.8,693.1,636.2z"/>
		<path class="st18" d="M707.7,636.4c-2.3,1.1-7.2,2.3-9.9,0.9C697.8,636.3,707.9,631.1,707.7,636.4z"/>
		<path class="st18" d="M531.4,702.9c0,0,1-7.7,1-18.6c0-7.6,2.3-25.6,2.2-26.3C535.1,658,536.9,686,531.4,702.9z"/>
		<path class="st18" d="M711.3,657.7c0.4,0,4.6,12.6,5.5,19.4c1,7,0.9,19.6,0.9,19.6C712.4,680.8,711.3,658.4,711.3,657.7z"/>
		<path class="st18" d="M624.5,683.1c-3.5-7.3,0-19.9,0-19.9C625.2,667.5,627.7,674.1,624.5,683.1z"/>
		<path class="st18" d="M543.6,675.2c0.5,0.3,0.7,21.3-2.3,29.6C540.1,690.1,543.6,676.1,543.6,675.2z"/>
		<path class="st18" d="M713.8,709.3c-7.9,5.2-46.2,12.7-64.4,11c0.9,0.1,24.6-3.3,34.3-5C693.7,713.5,715,709.2,713.8,709.3z"/>
		<path class="st18" d="M603.9,723.2c0,0-23.9-0.9-31.7-1.6c-16.5-1.4-38.2-6.9-38.3-7.4c0.5-0.1,33.1,4,49.7,5.6
			C588.8,720.2,603.9,723.2,603.9,723.2z"/>
	</g>
	<g>
		<polygon class="st19" points="446.3,322.1 492.1,322.7 564.2,327.8 575.7,331.3 598.7,365.3 627,374.3 651.2,360.5 667.6,331.7 
			783.7,316.6 792.7,349.1 792.7,386.5 710.2,406.5 723.6,560.1 673.4,579.3 603.1,581.5 547.1,569.3 527.1,564.2 536.4,430.6 
			534.5,399 454.6,385.9 		"/>
		<path class="st18" d="M714,411.9c3,40.6,6.5,95.3,10.4,136.2c0.5,5.3,2.6,10.1,1.4,13.3c-2.3,5.8-21.5,10.7-30.4,14.2
			c-11.5,4.5-22.2,9.3-34.7,10.2c-28.9,1.9-65.1,0.8-88.8-5.3c-6-1.6-11.9-1.4-16-2.7c-3.1-0.9-5.9-3.8-9.2-5.1
			c-7.6-2.9-17.8-0.7-23.1-6.6c-0.2-51.1,6.8-110.7,7.2-161.2c-11.8-5-70.5-13.3-82.1-15.3c-4.9-14.8-0.5-14.5-1.3-34.5
			c-0.3-6.5-8.6-32.9-6.2-35.9c2-2.4,23.1-1.4,28.6-0.6c9.2,1.4,20.6,1.4,26.2,1.4c17.1,0,38.6,4.1,61.7,3.8
			c5.2-0.1,13.1-0.7,18.7,0.5c8,1.6,14.4,25.4,19.4,31.1c9.6,11,38.4,22.3,49.2,6.8c3.3-4.7,17.7-35.5,26.2-36.4
			c13-1.3,22.9-0.7,35.2-2.2c11-1.3,23.5-2.8,37.3-4.7c6.2-0.8,12.5-1.4,19.6-2c5.9-0.5,20.5-3.2,23-1.8c0,0,6.6,25.3,8.1,33.8
			c2.2,12.3,1.6,17.3,2.4,29.8c0.3,3.8,0.6,9.6,0.6,9.6C791.7,394.9,723.7,407.1,714,411.9z M745.4,323.6
			c-14.5,2.1-32.2,5.4-47.1,8.3c-7.9,1.5-20.6-1-28.8,0.9c-3.7,0.8-13.9,25.5-18.3,30.6c-18.4,21.2-36.5,9.7-57.8-0.7
			c-7.3-3.6-12.7-30.9-22.1-32.1c-5.5-0.7-17.7-1.8-22.3-1.2c-11.7,1.6-18-0.5-30.2-0.5c-11.1,0-28-2.8-38.4-2.8
			c-11.1,0-22.5-4-31.8-3.5c1.2,18.2,3.2,45.4,6,63.2c6.5,1.2,21.7,3.2,28.9,2.5c4.8-0.4,44.6,6.9,50.3,8.4
			c6.5,1.6,2.6,31.4,2.1,40.9c-2.4,42.3-7.4,82.3-6,122.8c2.8,5.8,10.4,4.8,16.8,7c3.9,1.3,7.2,4.8,11,5.9c3.3,0.9,7.3,0.2,10.8,0.9
			c5.1,1,9.4,3.4,14.5,4.3c5.6,1,11.5,0.1,17.9,0.5c20.2,1.2,41.2,3.3,61,1.9c23.1-1.6,42.3-14.9,59.1-20.2
			c-3.3-36.8-10.9-90-13-130.4c-0.3-5.5-2.5-23.4,2.3-24.5c4.4-1,37.7-9.8,41.5-10.7c8.2-2,34.8-9.9,40.7-11.5
			c-1.4-21.2,0.2-38.8-9.8-63.6C771.4,320.4,758.8,321.7,745.4,323.6z"/>
		<path class="st18" d="M546.6,338c1,16.2,1.7,29.4-9.8,52.4c0,0,2-9.6,3.4-17.2C541.7,364.7,546.6,338,546.6,338z"/>
		<path class="st18" d="M533.1,349.5c2.7,9.2,0.7,25.9-0.5,39c0,0-1-12.9-0.9-17.5C531.7,365.7,533.1,349.5,533.1,349.5z"/>
		<path class="st18" d="M670.9,353.3c0.4,3.5-1.3,6.7-4.2,5.7C666.1,355.6,667.5,351.6,670.9,353.3z"/>
		<path class="st18" d="M702.3,340.5c3.9,12.8,7.8,58.4,7.8,58.4C698,374,702.3,340.5,702.3,340.5z"/>
		<path class="st18" d="M570.2,361.7C570.2,361.7,569.6,361.7,570.2,361.7c2.7,2.3,5.1,4.9,5.4,9
			C571.1,370.8,568.8,365.9,570.2,361.7z"/>
		<path class="st18" d="M665.7,362.9c0.4,4.2-2.6,8.5-5.9,6.3C660.9,366.4,662.1,361.8,665.7,362.9z"/>
		<path class="st18" d="M579.2,374.3c4.5,2.1,7.6,5.7,10.1,9.9C584.3,385.2,578.2,379.7,579.2,374.3z"/>
		<path class="st18" d="M657.3,374.8c0.3,4.5-4.8,8.5-8.2,6.4C650.6,378.3,653.4,374,657.3,374.8z"/>
		<path class="st18" d="M458.8,344.7c1.1,0.4,5,18.2,2.7,36.1C458.9,362.9,456.6,353.1,458.8,344.7z"/>
		<path class="st18" d="M601.5,391.2c-3.5,1.3-7.8-1.2-8.2-5.1C596.7,385.1,600.8,387.7,601.5,391.2z"/>
		<path class="st18" d="M645.8,383.5c-0.1,4.3-6.6,7.3-9.9,5.4C637,385.5,642.2,383.1,645.8,383.5z"/>
		<path class="st18" d="M674.1,340.5c1.9,2.4,0.5,6.5-2.1,6.6C671.7,344.9,671.7,341.5,674.1,340.5z"/>
		<path class="st18" d="M568.6,356.1c-3.4-0.3-5.4-5.7-3.8-8.3C567.5,348.9,569.2,353.2,568.6,356.1z"/>
		<path class="st18" d="M563.2,342.3c-2.4-0.7-3.1-4.9-1.5-6.5C563.5,337,564,340.3,563.2,342.3z"/>
		<path class="st18" d="M675.1,336.6c2.3-1,2.6-5.2,0.8-6.6C674.3,331.4,674.1,334.8,675.1,336.6z"/>
		<path class="st18" d="M775.3,327.8c5.6,9.9,11.2,46.3,10.2,51c0,0-4.2-16.1-5.8-23.7C778,347.2,774.8,328.3,775.3,327.8z"/>
		<path class="st18" d="M606.1,392.3c2.7-1.3,9.9-1.6,10.6,2.3C613.4,396.2,608.5,394.3,606.1,392.3z"/>
		<path class="st18" d="M632,390.3c-3.2,5.1-6.8,3.8-9.4,3.8C622.6,394,624.3,389,632,390.3z"/>
		<path class="st18" d="M707.1,557.1c0,0-27.9,11.3-40.5,12.9c-44.7,5.8-87.5,0.8-124-13.8c0,0,51.6,19.3,126.3,9.4
			C682.4,563.8,707.1,557.1,707.1,557.1z"/>
		<g>
			<g>
				<path class="st20" d="M652.5,491.3c0,0,7.1,7.2-0.9,9.1c-9.5,2.3-14.5-0.2-14.5-0.2L652.5,491.3z"/>
				<path class="st21" d="M643.8,501.8c-4.5,0-6.9-1.1-7-1.2c-0.1-0.1-0.2-0.2-0.3-0.4s0.1-0.3,0.2-0.4l15.4-8.9
					c0.2-0.1,0.4-0.1,0.5,0.1c0.2,0.2,3.8,3.8,2.9,6.8c-0.4,1.5-1.8,2.5-4.1,3C648.9,501.5,646.3,501.8,643.8,501.8z M638.1,500.1
					c1,0.3,3,0.8,5.8,0.8c2.4,0,4.9-0.3,7.6-1c1.9-0.5,3.1-1.3,3.4-2.4c0.6-2.1-1.7-4.9-2.5-5.7L638.1,500.1z"/>
			</g>
			<g>
				<path class="st22" d="M662.6,431.9c-0.2-7.6-3.2-10.8-7.8-15c1.5-1.6,3.8-4.4,3.4-5.2c-1.3-2.6-9.2,0-11.6,0.8
					c-1.3-0.3-2.6-0.5-4-0.6c-11.9-0.6-19.1,0.3-22.6,1.5c-3-0.8-9.4-2.4-10.7-1.5c-1.2,0.9,0.8,5.1,2.1,7.6c-0.3,0.2-0.7,0.4-1,0.6
					c-10.5,4.9-24.7,21.8-28.5,37.4c-1,4.2-1.6,8.5-1.8,12.8c-0.2,8.5,1.4,17.2,5.7,24.6c0,0-20.7,7.7-16.5,26
					c1.2,5.2,6.3,8.8,11.9,8.2c6.5-0.7,10.7-7,4.1-11.3c-5.3-3.6,1.1-8,4.9-10.3c4.2-2.6,10.1-3.6,15-3.3c10.7,0.6,40.4,5.5,47-11.8
					c0-0.4,8.2-23.2-4.6-42.5C647.8,450,662.8,440,662.6,431.9z"/>
				<path class="st21" d="M580.1,529.6c-2.6,0-5.1-0.9-7.1-2.4c-1-0.8-1.8-1.7-2.5-2.7c-0.7-1.1-1.2-2.2-1.5-3.5
					c-1-4.3-0.7-8.3,0.8-12.1c1.2-3,3.2-5.8,6-8.2c2.4-2.2,5-3.8,6.7-4.7c1.2-0.7,2.2-1.1,2.7-1.3c-3.9-6.9-5.8-15.3-5.5-24.4
					c0.1-4.2,0.7-8.6,1.8-12.9c1.8-7.3,6-15.5,11.8-22.9c2.6-3.4,5.6-6.5,8.5-9c2.9-2.6,5.8-4.6,8.4-5.8c0.2-0.1,0.4-0.2,0.6-0.3
					c-0.6-1.2-1.3-2.7-1.8-4.1c-0.7-2-0.7-3.2,0-3.7c0.4-0.3,0.9-0.4,1.8-0.4c2.4,0,6.8,1.1,9.2,1.7c3.2-1.1,8.7-1.6,15.4-1.6
					c2.2,0,4.7,0.1,7.2,0.2c1.3,0.1,2.7,0.3,4,0.6c1.8-0.6,5.8-1.9,8.7-1.9c1.7,0,2.8,0.5,3.3,1.4c0.3,0.6,0,1.4-1,2.8
					c-0.6,0.9-1.5,1.9-2.2,2.6c4.5,4.1,7.4,7.4,7.6,15c0,1.7-0.5,3.6-1.7,5.6c-1,1.7-2.4,3.4-4.2,5.3c-2.2,2.3-4.5,4.1-6.1,5.3
					c-0.8,0.6-1.6,1.2-2.2,1.6c-0.2,0.2-0.4,0.3-0.6,0.4c2.6,4,4.5,8.5,5.7,13.4c1,4.1,1.4,8.4,1.3,12.9c-0.1,3.4-0.4,6.8-1.1,10.2
					c-0.5,2.7-1.1,4.7-1.4,5.5c-0.1,0.2-0.1,0.3-0.1,0.4c0,0,0,0.1,0,0.1c-1,2.6-2.5,4.9-4.6,6.7c-1.9,1.6-4.3,3-7,4
					c-4.6,1.7-10.3,2.5-17.4,2.5c-5.2,0-10.1-0.4-14-0.8c-1.7-0.1-3.1-0.3-4.3-0.3c-0.5,0-1,0-1.5,0c-4.9,0-9.8,1.2-13.2,3.3
					c-1.6,1-6.6,4-6.7,6.8c0,1,0.6,1.9,1.8,2.7c1.4,0.9,2.4,2,3,3.2c0.5,1.1,0.6,2.3,0.4,3.4c-0.7,2.9-3.9,5.2-7.7,5.6
					C581,529.5,580.5,529.6,580.1,529.6z M610.8,412c-0.9,0-1.1,0.1-1.2,0.2c-0.4,0.3-0.3,2.1,2.2,7c0.1,0.2,0,0.5-0.2,0.6
					c-0.3,0.2-0.7,0.4-1.1,0.6c-5.2,2.4-11.2,7.7-16.6,14.5c-5.8,7.3-9.9,15.3-11.6,22.5c-1,4.2-1.6,8.5-1.7,12.7
					c-0.3,9.1,1.7,17.6,5.7,24.4c0.1,0.1,0.1,0.3,0,0.4c0,0.1-0.1,0.2-0.3,0.3c-0.1,0-5.2,2-9.7,6.1c-6,5.5-8.2,12-6.5,19.4
					c1.1,4.6,5.3,7.9,10.3,7.9c0.4,0,0.8,0,1.2-0.1c3.4-0.4,6.3-2.4,6.9-4.9c0.5-2-0.6-4-3-5.6c-1.5-1-2.3-2.2-2.2-3.5
					c0-1.4,0.9-2.8,2.6-4.3c1.5-1.3,3.3-2.5,4.5-3.2c3.5-2.1,8.6-3.4,13.6-3.4c0.5,0,1.1,0,1.6,0c1.2,0.1,2.7,0.2,4.3,0.3
					c3.9,0.3,8.8,0.8,13.9,0.8c7,0,12.6-0.8,17.1-2.4c5.6-2,9.4-5.5,11.1-10.1c0-0.1,0.1-0.2,0.1-0.5c2.1-7.2,5.9-25.7-4.7-41.7
					c-0.1-0.2-0.1-0.4,0.1-0.6c0.1-0.1,0.1-0.1,0.2-0.1c0.6-0.3,4.2-2.7,7.7-6c3.2-3,6.9-7.5,6.8-11.4c-0.2-7.4-3-10.5-7.7-14.7
					c-0.1-0.1-0.1-0.2-0.1-0.3c0-0.1,0-0.2,0.1-0.3c3.6-3.9,3.3-4.7,3.3-4.7c-0.3-0.6-1.1-0.9-2.5-0.9c-2.8,0-6.9,1.3-8.6,1.9
					c-0.1,0-0.2,0-0.3,0c-1.3-0.3-2.6-0.5-3.9-0.6c-2.5-0.1-4.9-0.2-7.1-0.2c-9.1,0-13.5,1-15.3,1.6c-0.1,0-0.2,0-0.3,0
					C617.5,413.1,613.2,412,610.8,412z"/>
			</g>
			<path class="st20" d="M617.1,416.9c0,0,5.2,16.5,22.2,20.4c-0.4,0.4-6.1,0.4-6.1,0.4s-22.9-13.4-27.8-11.7
				c-1.2-0.4,7.6-8.3,7.6-8.3L617.1,416.9z"/>
			<path class="st23" d="M647.8,422.7c0,0-15.4,12.1-8.1,15.1c7.3,3,11.9,3.9,11.9,3.9l7.2-3.2C658.8,438.5,665.8,433.5,647.8,422.7
				z"/>
			<path class="st24" d="M660,423.6c-0.4,0-0.8,0-1.2,0.1c-1.4,0.1-2.8,0.1-4.2,0.2c-0.6,0-1.1,0.1-1.7,0.1c-0.5,0-1.1,0.1-1.4-0.4
				c0-0.1,0-0.2-0.2-0.2c-0.1,0-0.3,0.2-0.4,0.3c-0.2,0.3,0.1,0.7,0.2,0.9c3.6,4.8,8.6,1.1,8.9,0.5C660.7,424,660,423.6,660,423.6z"
				/>
			<path class="st25" d="M652.3,424.6l7.6-0.5c0,0-0.9,2.5-4,2.6C652.8,426.8,652.3,424.6,652.3,424.6z"/>
			<path class="st24" d="M649,434.8c-0.1,0-0.2-0.1-0.3-0.1c-0.2-0.2-0.1-0.5,0-0.6l0.7-0.7v-5.2c0-0.2,0.2-0.4,0.4-0.4
				s0.4,0.2,0.4,0.4v5.4c0,0.1-0.1,0.2-0.1,0.3l-0.9,0.8C649.2,434.7,649.1,434.8,649,434.8z"/>
			<path class="st24" d="M650.6,434.8c-0.1,0-0.2-0.1-0.3-0.2l-0.7-0.8c-0.2-0.2-0.1-0.5,0-0.6c0.2-0.2,0.5-0.1,0.6,0l0.7,0.8
				c0.2,0.2,0.1,0.5,0,0.6C650.8,434.7,650.7,434.8,650.6,434.8z"/>
			<g>
				<path class="st26" d="M646.8,426.8c0,0,3.1-1.1,5.7,0l-2.6,1.4L646.8,426.8z"/>
				<path class="st24" d="M649.9,428.6c-0.1,0-0.1,0-0.2,0l-3.1-1.4c-0.2-0.1-0.3-0.2-0.3-0.4c0-0.2,0.1-0.3,0.3-0.4
					c0.1,0,1.5-0.5,3.2-0.5c1,0,2,0.2,2.8,0.5c0.2,0.1,0.3,0.2,0.3,0.4c0,0.2-0.1,0.3-0.2,0.4l-2.6,1.4
					C650,428.6,650,428.6,649.9,428.6z M648.2,426.9l1.7,0.8l1.5-0.8c-0.5-0.1-0.9-0.1-1.5-0.1C649.2,426.7,648.6,426.8,648.2,426.9
					z"/>
			</g>
			<g>
				<path class="st20" d="M653.3,438.2c0,0-1.2,1.6-4,1.6c-2.8,0-5.4-2.5-5.1-2.4c-6.4,0.6-15.8-2.7-15.8-2.7
					c0.3,0.2,0.6,0.4,1.1,0.7c-0.1,0-0.1-0.1-0.2-0.1c0,0,2.1,1.4,5.3,2.9c-0.3-0.2-0.6-0.4-0.8-0.5c1.3,0.6,2.6,1.3,3.8,1.8
					c-1.1-0.4-2.1-0.9-3-1.3c4.1,2.7,7.7,6.2,9.9,8.5c0.5,3.6,1.5,13.2-2.3,18c5.8,2.9,12.4,9.8,10.1,26.5c0,0,0.1,0.1,0.1,0.1
					c1.3-4.4,6.6-24.4-4.9-41.7c0,0,0.4-0.2,1-0.6c-0.1-0.1-0.1-0.1-0.2-0.2c5.3-2,11.2-9.6,11.4-10.1c-0.2,0.2-0.4,0.3-0.5,0.4
					c1.1-1.5,2.1-3.3,2.9-5C659.6,439.6,653.3,438.2,653.3,438.2z"/>
				<path class="st20" d="M662.2,434.3c0.1-0.2,0.2-0.4,0.3-0.6C662.4,433.9,662.3,434.1,662.2,434.3z"/>
			</g>
			<path class="st24" d="M643.1,423.4C643.1,423.4,643.1,423.4,643.1,423.4c-0.3-0.4-0.6-0.4-0.7,0c-0.2,0.4-0.4,0.5-0.8,0.5
				c-3.8-0.7-14.2-2.1-14.2-2.1c-1,1.6,2.6,4.4,8.1,4.4c2.8,0,6.7-0.6,7.6-2C643.2,424,643.3,423.6,643.1,423.4z"/>
			<path class="st25" d="M628,422.4l13.5,1.7C641.5,424.1,633.3,428.5,628,422.4z"/>
			<path class="st21" d="M653.1,490.2C653.1,490.2,653.1,490.2,653.1,490.2c-0.3,0-0.5-0.3-0.4-0.5c1.1-8.5-0.3-15.2-4.3-19.8
				c-2.9-3.4-6.7-5.1-9.3-5.9c-2.8-0.9-5-0.9-5-0.9c-4.2-0.1-7.8,0.9-10.5,2.8c-0.2,0.1-0.5,0.1-0.6-0.1s-0.1-0.5,0.1-0.6
				c2.9-2,6.6-3,11-3c0,0,0,0,0,0c0.1,0,2.3,0.1,5.3,1c1.7,0.5,3.4,1.2,4.9,2.1c1.9,1.1,3.5,2.5,4.8,4c4.2,4.9,5.7,11.8,4.5,20.5
				C653.5,490,653.3,490.2,653.1,490.2z"/>
			<path class="st21" d="M649.8,440.1c-1.4,0-2.8-0.3-3.9-0.7c-0.2-0.1-0.4-0.3-0.3-0.6c0.1-0.2,0.3-0.4,0.6-0.3
				c1.6,0.5,4,1,5.6,0.3c0.2-0.1,0.5,0,0.6,0.2c0.1,0.2,0,0.5-0.2,0.6C651.4,439.9,650.6,440.1,649.8,440.1z"/>
			<path class="st20" d="M654.8,416.9c1.5-1.6,3.8-4.4,3.4-5.2c-1.3-2.6-9.2,0-11.6,0.8c-0.5-0.1,4.9,1.9,9.3,5.4
				C655.5,417.6,655.1,417.2,654.8,416.9z"/>
			<path class="st24" d="M641.4,421.8c0,0-0.1,0-0.1-0.1c-1.2-1.6-3-2.7-5.8-3.4c-0.1,0-0.1-0.1-0.1-0.2s0.1-0.1,0.2-0.1
				c2.9,0.7,4.8,1.8,6,3.5C641.6,421.6,641.5,421.7,641.4,421.8C641.4,421.7,641.4,421.8,641.4,421.8z"/>
			<path class="st24" d="M651.5,422.5C651.5,422.5,651.5,422.5,651.5,422.5c-0.1,0-0.2-0.1-0.1-0.2c0.2-1.1,0.9-2.2,1.8-3.1
				c0.1-0.1,0.2-0.1,0.2,0c0.1,0.1,0.1,0.2,0,0.2c-0.9,0.9-1.5,1.9-1.7,3C651.6,422.4,651.6,422.5,651.5,422.5z"/>
			<path class="st21" d="M643.5,451.4c-0.1,0-0.1,0-0.1-0.1c-3.6-8.2-11.3-11.8-17-13.4c-6.3-1.7-11.7-1.5-11.8-1.5
				c-0.1,0-0.2-0.1-0.2-0.1c0-0.1,0.1-0.2,0.1-0.2c0.1,0,5.6-0.2,11.9,1.5c3.7,1,7,2.5,9.7,4.4c3.4,2.4,5.9,5.5,7.6,9.1
				C643.7,451.2,643.6,451.3,643.5,451.4C643.5,451.4,643.5,451.4,643.5,451.4z"/>
			<path class="st21" d="M643.3,452.9c-0.1,0-0.1,0-0.1-0.1c-2.1-5.3-6.2-8.5-9.2-10.3c-3.3-1.9-6-2.6-6.1-2.6
				c-0.1,0-0.1-0.1-0.1-0.2c0-0.1,0.1-0.1,0.2-0.1c0,0,2.8,0.7,6.1,2.7c1.9,1.1,3.7,2.5,5.1,4c1.8,1.9,3.2,4.1,4.2,6.4
				C643.5,452.8,643.4,452.9,643.3,452.9C643.4,452.9,643.3,452.9,643.3,452.9z"/>
			<path class="st21" d="M618,473.4C618,473.4,617.9,473.4,618,473.4c-0.2-0.1-0.2-0.2-0.1-0.2c0,0,1.9-2.1,4.6-4
				c1.6-1.1,3.2-2,4.6-2.6c1.9-0.7,3.6-1,5.2-0.9c0.1,0,0.1,0.1,0.1,0.2c0,0.1-0.1,0.1-0.2,0.1c-3.5-0.4-7.2,1.6-9.7,3.4
				c-2.7,1.9-4.6,4-4.6,4C618.1,473.4,618.1,473.4,618,473.4z"/>
			<path class="st21" d="M621.5,471.7c0,0-0.1,0-0.1,0c-0.1-0.1-0.1-0.2,0-0.2c0,0,2.4-2.3,5.4-3.5c0.1,0,0.2,0,0.2,0.1
				c0,0.1,0,0.2-0.1,0.2c-3,1.1-5.3,3.4-5.3,3.4C621.5,471.7,621.5,471.7,621.5,471.7z"/>
			<path class="st21" d="M642,494.7c0,0-0.1,0-0.1-0.1c-0.1-0.1,0-0.2,0-0.2c5.6-4.9,6.1-10.5,5.7-14.4c-0.5-4.2-2.4-7.3-2.4-7.3
				c0-0.1,0-0.2,0-0.2c0.1,0,0.2,0,0.2,0c0,0,1.9,3.2,2.5,7.4c0.3,2.5,0.1,4.9-0.6,7.1C646.3,489.9,644.6,492.4,642,494.7
				C642,494.7,642,494.7,642,494.7z"/>
			<path class="st21" d="M640.8,499.9c0,0-0.1,0-0.1-0.1c-0.1-0.1,0-0.2,0-0.2c6.4-5.5,8.3-11.6,8.8-15.8c0.5-4.5-0.4-7.8-0.5-7.8
				c0-0.1,0-0.2,0.1-0.2c0.1,0,0.2,0,0.2,0.1c0,0,1,3.4,0.5,7.9c-0.3,2.7-1.1,5.3-2.3,7.7C646,494.6,643.8,497.4,640.8,499.9
				C640.9,499.8,640.9,499.9,640.8,499.9z"/>
			<path class="st21" d="M601.5,493.3C601.5,493.3,601.5,493.3,601.5,493.3c-4.6-3.1-7.8-7-9.8-11.6c-1.5-3.7-2.2-7.9-2.1-12.5
				c0.1-4.1,1-7.7,1.6-10c0.7-2.5,1.4-4.1,1.4-4.1c0-0.1,0.1-0.1,0.2-0.1c0.1,0,0.1,0.1,0.1,0.2c0,0-0.7,1.6-1.4,4.1
				c-0.7,2.3-1.5,5.9-1.6,9.9c-0.2,7.1,1.6,17.1,11.7,23.9c0.1,0,0.1,0.1,0,0.2C601.6,493.2,601.6,493.3,601.5,493.3z"/>
			<path class="st21" d="M611,500.2C611,500.2,611,500.2,611,500.2c-4.5-1-8.4-2.7-11.6-4.8c-2.6-1.7-4.7-3.8-6.4-6.2
				c-1.5-2.1-2.3-4-2.7-5.3c-0.5-1.4-0.6-2.2-0.6-2.3c0-0.1,0-0.2,0.1-0.2c0.1,0,0.2,0,0.2,0.1c0,0,0.4,3.5,3.2,7.5
				c2.6,3.7,7.7,8.5,17.7,10.9c0.1,0,0.1,0.1,0.1,0.2C611.2,500.2,611.1,500.2,611,500.2z"/>
			<path class="st21" d="M605.7,497.4C605.7,497.4,605.7,497.4,605.7,497.4c-3.9-1-6.5-3-8-4.5c-1.7-1.6-2.4-2.9-2.4-3
				c0-0.1,0-0.2,0.1-0.2c0.1,0,0.2,0,0.2,0.1c0,0,0.8,1.3,2.4,2.9c1.5,1.4,4.1,3.4,7.8,4.4c0.1,0,0.1,0.1,0.1,0.2
				C605.8,497.4,605.8,497.4,605.7,497.4z"/>
			<path class="st20" d="M586.2,475.1c-0.5-3.3-0.3-6.3,0-9.8c0.3-3.4,1-6.8,1.9-10.1c1.7-6,4.4-11.6,7.7-16.9
				c3.4-5.2,7.4-10,11.9-14.3c1.1-1,4.2-4.8,5.9-4.9c0,0-2.3,0.1-2.3,0.1c0,0.1,0.1,0.1,0.1,0.2c-0.3,0.2-0.7,0.4-1,0.6
				c-8.7,4-20.1,16.5-25.8,29.6c0,0.1-0.1,0.1-0.1,0.2c-0.3,0.7-0.6,1.3-0.8,2c0,0.1-0.1,0.2-0.1,0.2c-0.1,0.3-0.2,0.7-0.4,1
				c0,0,0,0,0,0c-0.1,0.3-0.2,0.6-0.3,1c0,0.1-0.1,0.2-0.1,0.2c-0.1,0.3-0.2,0.7-0.3,1c0,0,0,0,0,0c-0.1,0.3-0.2,0.6-0.3,1
				c0,0.1,0,0.2-0.1,0.2c-0.1,0.3-0.2,0.6-0.3,1c-0.1,0.5-0.2,0.9-0.3,1.4c0,0.1-0.1,0.3-0.1,0.4c-0.1,0.4-0.2,0.8-0.2,1.1
				c0,0.2-0.1,0.4-0.1,0.6c0,0.3-0.1,0.5-0.1,0.8c0,0.2-0.1,0.5-0.1,0.7c0,0.2,0,0.3-0.1,0.5c-0.1,0.5-0.1,1-0.2,1.6
				c0,0.1,0,0.2,0,0.3c0,0.3-0.1,0.6-0.1,1c-0.2,1.5-0.3,2.9-0.3,4.4c-0.2,8.4,1.4,17,5.6,24.4c1,1.1,2.2,2.2,3.7,3.2
				c1.5,3.6-3.6,5.5-5.8,7.7c-6.8,6.6-2.9,17.2,1.8,18.9c0.8,0.3,1.8,0.4,3,0.3c1-2.2,0.4-4.8-2.8-7c-5.3-3.6,1.1-8,4.9-10.3
				c3.6-2.2,8.5-3.3,12.9-3.4c0.3,0,0.7,0,1,0c0,0,0,0,0,0c0.3,0,0.7,0,1,0c8.8,0.5,30.3,3.9,41.4-4.4c-1.7,1.2-12.2,4.2-27,3.8
				c-6.3-0.2-12.6-1.8-18-5.1c-5-3-9-7.5-11.7-12.7c-1.3-2.5-2.4-5.1-3.1-7.9C586.5,476.9,586.3,476,586.2,475.1z"/>
			<path class="st21" d="M586.6,495.8c-1.5,0-3.1-0.7-4.7-2.2c-1.3-1.1-2.2-2.3-2.2-2.3c0-0.1,0-0.2,0-0.2c0.1,0,0.2,0,0.2,0
				c0,0,0.9,1.2,2.2,2.3c1.2,1,3,2.2,4.8,2.1c0.1,0,0.2,0.1,0.2,0.1c0,0.1-0.1,0.2-0.1,0.2C586.8,495.8,586.7,495.8,586.6,495.8z"/>
			<path class="st21" d="M585.9,496.2c-1.5,0-4.3-1.2-4.5-1.2c-0.1,0-0.1-0.1-0.1-0.2c0-0.1,0.1-0.1,0.2-0.1c0,0,2.9,1.2,4.3,1.2
				c0.1,0,0.1,0.1,0.1,0.1C586,496.1,586,496.2,585.9,496.2z"/>
			<path class="st21" d="M569.7,507c-0.1,0-0.1-0.1-0.1-0.1s0.1-0.1,0.1-0.1c0,0,1.9,0,3-0.7c0.1,0,0.2,0,0.2,0s0,0.2,0,0.2
				C571.7,507,569.8,507,569.7,507z"/>
			<path class="st21" d="M573.9,504.5h-2.7c-0.1,0-0.1-0.1-0.1-0.1s0.1-0.1,0.1-0.1h2.7c0.1,0,0.1,0.1,0.1,0.1
				S573.9,504.5,573.9,504.5z"/>
			<path class="st21" d="M576.1,502.4c-0.5,0-1.2-1-1.3-1.3c0-0.1,0-0.2,0-0.2c0.1,0,0.2,0,0.2,0c0.3,0.5,0.8,1.1,1.1,1.1
				c0.1,0,0.1,0.1,0.1,0.1C576.2,502.4,576.2,502.4,576.1,502.4z"/>
			<path class="st21" d="M578.3,500.1c-1,0-1.8-2-1.9-2.2c0-0.1,0-0.2,0.1-0.2c0.1,0,0.2,0,0.2,0.1c0.2,0.6,1,2,1.6,2
				c0.1,0,0.1,0.1,0.1,0.1C578.5,500,578.4,500.1,578.3,500.1z"/>
			<path class="st21" d="M579.2,499.5C579.2,499.5,579.2,499.5,579.2,499.5c-0.9-0.3-1.2-1.3-1.2-1.3c0-0.1,0-0.2,0.1-0.2
				c0.1,0,0.2,0,0.2,0.1c0,0,0.3,0.8,1,1.1c0.1,0,0.1,0.1,0.1,0.2C579.3,499.4,579.3,499.5,579.2,499.5z"/>
			<path class="st21" d="M581.6,498C581.6,498,581.6,498,581.6,498c-1-0.2-1.9-1-1.9-1.1c-0.1-0.1-0.1-0.2,0-0.2
				c0.1-0.1,0.2-0.1,0.2,0c0,0,0.9,0.9,1.7,1c0.1,0,0.1,0.1,0.1,0.2C581.7,497.9,581.7,498,581.6,498z"/>
			<path class="st21" d="M594.5,506.6c-0.1,0-0.1,0-0.1-0.1c-0.3-0.7-0.3-1.3,0.2-2c0.3-0.5,0.7-0.7,0.8-0.7c0.1,0,0.2,0,0.2,0
				c0,0.1,0,0.2,0,0.2l0,0c-0.1,0-1.5,1-0.8,2.3C594.7,506.5,594.7,506.5,594.5,506.6C594.6,506.6,594.6,506.6,594.5,506.6z"/>
			<path class="st21" d="M596.5,506.6c-0.1,0-0.1-0.1-0.1-0.1c0-0.4,0.1-1.9,0.1-1.9c0-0.1,0.1-0.1,0.2-0.1c0.1,0,0.1,0.1,0.1,0.2
				c0,0-0.1,1.5-0.1,1.9C596.6,506.5,596.5,506.6,596.5,506.6z"/>
			<path class="st20" d="M597.2,434.8c0,0,10.8-9,32.1,0.6c-3-2.7-10.8-8.6-10.8-8.6l-12.4-2.7L597.2,434.8z"/>
			<path class="st20" d="M592.8,443c0,0,5.9-11.8,17.7-12.2c-3.4-3-6.8-3.4-6.8-3.4l-4.6,2.3L592.8,443z"/>
			<path class="st20" d="M626.7,412.1c-3,0.3-5.2,0.8-6.7,1.3c-3-0.8-9.4-2.4-10.7-1.5c-0.7,0.5-0.3,2.1,0.4,3.9
				c5,4,10.8,8.5,10.8,8.5S617.5,416,626.7,412.1z"/>
			<path class="st21" d="M611.6,411.9C611.5,411.9,611.5,411.9,611.6,411.9l-3-1.7c-0.1,0-0.1-0.1-0.1-0.2c0-0.1,0.1-0.1,0.2-0.1
				l3,1.7c0.1,0,0.1,0.1,0.1,0.2C611.7,411.9,611.6,411.9,611.6,411.9z"/>
			<path class="st21" d="M613.3,412.1c-0.1,0-0.1,0-0.1-0.1l-0.8-2.3c0-0.1,0-0.2,0.1-0.2c0.1,0,0.2,0,0.2,0.1l0.8,2.3
				C613.4,412,613.4,412.1,613.3,412.1C613.3,412.1,613.3,412.1,613.3,412.1z"/>
			<path class="st21" d="M614.5,411.7c-0.1,0-0.1,0-0.1-0.1l-0.4-1.5c0-0.1,0-0.2,0.1-0.2c0.1,0,0.2,0,0.2,0.1l0.4,1.5
				C614.7,411.6,614.7,411.7,614.5,411.7C614.6,411.7,614.6,411.7,614.5,411.7z"/>
			<path class="st21" d="M615.8,412.5c-0.1,0-0.1,0-0.1-0.1L615,411c0-0.1,0-0.2,0.1-0.2c0.1,0,0.2,0,0.2,0.1l0.6,1.5
				C616,412.4,615.9,412.5,615.8,412.5C615.8,412.5,615.8,412.5,615.8,412.5z"/>
			<path class="st21" d="M616.9,413C616.9,413,616.9,413,616.9,413c-0.1,0-0.2-0.1-0.1-0.2l0.2-1.7c0-0.1,0.1-0.1,0.2-0.1
				c0.1,0,0.1,0.1,0.1,0.2l-0.2,1.7C617,412.9,616.9,413,616.9,413z"/>
			<path class="st21" d="M617.7,413.8C617.7,413.8,617.7,413.8,617.7,413.8c-0.1,0-0.2-0.1-0.1-0.2l0.4-2.1c0-0.1,0.1-0.1,0.2-0.1
				c0.1,0,0.1,0.1,0.1,0.2l-0.4,2.1C617.9,413.8,617.8,413.8,617.7,413.8z"/>
			<path class="st21" d="M619,413.8c-0.1,0-0.1-0.1-0.1-0.1v-1.9c0-0.1,0.1-0.1,0.1-0.1c0.1,0,0.1,0.1,0.1,0.1v1.9
				C619.1,413.8,619.1,413.8,619,413.8z"/>
			<path class="st21" d="M620.1,414.7C620,414.7,620,414.7,620.1,414.7c-0.1,0-0.2-0.1-0.1-0.2l0.2-2.8c0-0.1,0.1-0.1,0.2-0.1
				c0.1,0,0.1,0.1,0.1,0.2l-0.2,2.8C620.2,414.6,620.1,414.7,620.1,414.7z"/>
			<path class="st27" d="M619,416.6c-4.7-3.5-9.9-3.9-9.9-3.9c0,0-0.1,0-0.1,0c-0.1,1.6,1.4,4.7,2.5,6.8
				C614.6,421.2,618.9,416.8,619,416.6z"/>
			<path class="st23" d="M634.5,471.7c3.1,1.2,5.7,2.9,7.6,4.8c0.5-0.3,0.9-0.8,1.2-1.3c0.8-2.1-1.4-4.9-4.9-6.3
				c-3.6-1.4-7.1-0.9-7.9,1.2c0,0.1-0.1,0.2-0.1,0.3C631.7,470.7,633.1,471.2,634.5,471.7z"/>
			<path class="st23" d="M574,511.2c-0.7-1.1-1.7-1.5-2.8-0.3c0,0-1.6,9.1,2.2,8.1c0.5-0.1,0.9-0.5,1.2-0.9
				C573.9,516.3,573.8,513.6,574,511.2z"/>
			<path class="st21" d="M580.1,529.6c-2.6,0-5.1-0.9-7.1-2.4c-1-0.8-1.8-1.7-2.5-2.7c-0.7-1.1-1.2-2.2-1.5-3.5
				c-1-4.3-0.7-8.3,0.8-12.1c1.2-3,3.2-5.8,6-8.2c2.4-2.2,5-3.8,6.7-4.7c1.2-0.7,2.2-1.1,2.7-1.3c-3.9-6.9-5.8-15.3-5.5-24.4
				c0.1-4.2,0.7-8.6,1.8-12.9c1.8-7.3,6-15.5,11.8-22.9c2.6-3.4,5.6-6.5,8.5-9c2.9-2.6,5.8-4.6,8.4-5.8c0.2-0.1,0.4-0.2,0.6-0.3
				c-0.6-1.2-1.3-2.7-1.8-4.1c-0.7-2-0.7-3.2,0-3.7c0.4-0.3,0.9-0.4,1.8-0.4c2.4,0,6.8,1.1,9.2,1.7c3.2-1.1,8.7-1.6,15.4-1.6
				c2.2,0,4.7,0.1,7.2,0.2c1.3,0.1,2.7,0.3,4,0.6c1.8-0.6,5.8-1.9,8.7-1.9c1.7,0,2.8,0.5,3.3,1.4c0.3,0.6,0,1.4-1,2.8
				c-0.6,0.9-1.5,1.9-2.2,2.6c4.5,4.1,7.4,7.4,7.6,15c0,1.7-0.5,3.6-1.7,5.6c-1,1.7-2.4,3.4-4.2,5.3c-2.2,2.3-4.5,4.1-6.1,5.3
				c-0.8,0.6-1.6,1.2-2.2,1.6c-0.2,0.2-0.4,0.3-0.6,0.4c2.6,4,4.5,8.5,5.7,13.4c1,4.1,1.4,8.4,1.3,12.9c-0.1,3.4-0.4,6.8-1.1,10.2
				c-0.5,2.7-1.1,4.7-1.4,5.5c-0.1,0.2-0.1,0.3-0.1,0.4c0,0,0,0.1,0,0.1c-1,2.6-2.5,4.9-4.6,6.7c-1.9,1.6-4.3,3-7,4
				c-4.6,1.7-10.3,2.5-17.4,2.5c-5.2,0-10.1-0.4-14-0.8c-1.7-0.1-3.1-0.3-4.3-0.3c-0.5,0-1,0-1.5,0c-4.9,0-9.8,1.2-13.2,3.3
				c-1.6,1-6.6,4-6.7,6.8c0,1,0.6,1.9,1.8,2.7c1.4,0.9,2.4,2,3,3.2c0.5,1.1,0.6,2.3,0.4,3.4c-0.7,2.9-3.9,5.2-7.7,5.6
				C581,529.5,580.5,529.6,580.1,529.6z M610.8,412c-0.9,0-1.1,0.1-1.2,0.2c-0.4,0.3-0.3,2.1,2.2,7c0.1,0.2,0,0.5-0.2,0.6
				c-0.3,0.2-0.7,0.4-1.1,0.6c-5.2,2.4-11.2,7.7-16.6,14.5c-5.8,7.3-9.9,15.3-11.6,22.5c-1,4.2-1.6,8.5-1.7,12.7
				c-0.3,9.1,1.7,17.6,5.7,24.4c0.1,0.1,0.1,0.3,0,0.4c0,0.1-0.1,0.2-0.3,0.3c-0.1,0-5.2,2-9.7,6.1c-6,5.5-8.2,12-6.5,19.4
				c1.1,4.6,5.3,7.9,10.3,7.9c0.4,0,0.8,0,1.2-0.1c3.4-0.4,6.3-2.4,6.9-4.9c0.5-2-0.6-4-3-5.6c-1.5-1-2.3-2.2-2.2-3.5
				c0-1.4,0.9-2.8,2.6-4.3c1.5-1.3,3.3-2.5,4.5-3.2c3.5-2.1,8.6-3.4,13.6-3.4c0.5,0,1.1,0,1.6,0c1.2,0.1,2.7,0.2,4.3,0.3
				c3.9,0.3,8.8,0.8,13.9,0.8c7,0,12.6-0.8,17.1-2.4c5.6-2,9.4-5.5,11.1-10.1c0-0.1,0.1-0.2,0.1-0.5c2.1-7.2,5.9-25.7-4.7-41.7
				c-0.1-0.2-0.1-0.4,0.1-0.6c0.1-0.1,0.1-0.1,0.2-0.1c0.6-0.3,4.2-2.7,7.7-6c3.2-3,6.9-7.5,6.8-11.4c-0.2-7.4-3-10.5-7.7-14.7
				c-0.1-0.1-0.1-0.2-0.1-0.3c0-0.1,0-0.2,0.1-0.3c3.6-3.9,3.3-4.7,3.3-4.7c-0.3-0.6-1.1-0.9-2.5-0.9c-2.8,0-6.9,1.3-8.6,1.9
				c-0.1,0-0.2,0-0.3,0c-1.3-0.3-2.6-0.5-3.9-0.6c-2.5-0.1-4.9-0.2-7.1-0.2c-9.1,0-13.5,1-15.3,1.6c-0.1,0-0.2,0-0.3,0
				C617.5,413.1,613.2,412,610.8,412z"/>
			<path class="st24" d="M614,430.1c-0.1,0-0.1,0-0.1-0.1c0-0.1,0-0.2,0.1-0.2c0,0,3.7-1.9,9.6-2.9c3.4-0.6,6.9-0.7,10.3-0.4
				c4.3,0.4,8.5,1.4,12.6,3c0.1,0,0.1,0.1,0.1,0.2c0,0.1-0.1,0.1-0.2,0.1c-9.1-3.8-17.4-3.5-22.7-2.6
				C617.7,428.2,614.1,430.1,614,430.1C614,430.1,614,430.1,614,430.1z"/>
			<path class="st24" d="M622.7,433.8c-0.1,0-0.1,0-0.1-0.1c0-0.1,0-0.2,0.1-0.2c0,0,2.7-1.3,7-2.2c2.5-0.5,5-0.8,7.6-0.8
				c3.1,0,6.2,0.3,9.2,1.1c0.1,0,0.1,0.1,0.1,0.2c0,0.1-0.1,0.1-0.2,0.1c-6.7-1.7-12.7-1.1-16.6-0.3
				C625.4,432.5,622.8,433.8,622.7,433.8C622.7,433.8,622.7,433.8,622.7,433.8z"/>
			<path class="st24" d="M674.9,430.3C674.9,430.3,674.8,430.3,674.9,430.3c-2.3-1.6-5.7-2.5-9.7-2.6c-4.1-0.1-8.6,0.7-12.9,2.2
				c-0.1,0-0.2,0-0.2-0.1c0-0.1,0-0.2,0.1-0.2c4.3-1.5,8.8-2.3,13-2.2c2,0,3.8,0.3,5.5,0.7c1.7,0.4,3.1,1.1,4.3,1.9
				c0.1,0,0.1,0.1,0,0.2C675,430.3,674.9,430.3,674.9,430.3z"/>
			<path class="st24" d="M669.5,444.5c-0.1,0-0.1,0-0.1-0.1c0,0-0.5-2.7-2.9-5.6c-2.2-2.6-6.4-6-14.2-6.8c-0.1,0-0.1-0.1-0.1-0.2
				c0-0.1,0.1-0.1,0.2-0.1c3.5,0.4,6.6,1.3,9.2,2.7c2.1,1.1,3.8,2.5,5.3,4.3c2.4,2.9,3,5.7,3,5.7
				C669.7,444.5,669.7,444.5,669.5,444.5C669.6,444.5,669.6,444.5,669.5,444.5z"/>
			<path class="st24" d="M668.4,432.6C668.4,432.6,668.3,432.6,668.4,432.6c-0.1,0-1.8-1.2-4.6-2c-2.6-0.7-6.7-1.2-11.4,0.5
				c-0.1,0-0.2,0-0.2-0.1c0-0.1,0-0.2,0.1-0.2c2.1-0.8,4.3-1.2,6.4-1.2c1.7,0,3.5,0.2,5.1,0.6c2.9,0.8,4.6,2,4.6,2
				c0.1,0,0.1,0.1,0,0.2C668.5,432.6,668.4,432.6,668.4,432.6z"/>
			<path class="st24" d="M645.4,430.6C645.4,430.6,645.4,430.6,645.4,430.6c-5.1-2.3-10.4-2.3-13.9-1.9c-3.8,0.4-6.5,1.4-6.6,1.4
				c-0.1,0-0.2,0-0.2-0.1c0-0.1,0-0.2,0.1-0.2c0,0,2.7-1,6.6-1.5c2.3-0.3,4.5-0.3,6.6,0c2.7,0.3,5.1,1,7.4,2c0.1,0,0.1,0.1,0.1,0.2
				C645.5,430.6,645.5,430.6,645.4,430.6z"/>
			<path class="st21" d="M647.9,450.9c-0.1,0-0.3-0.1-0.4-0.2c-4.1-5.7-9.5-9.7-13.2-12c-4-2.6-7.1-3.8-7.2-3.8
				c-0.2-0.1-0.3-0.4-0.2-0.6s0.4-0.3,0.6-0.2c0.1,0.1,3.2,1.3,7.3,3.9c2.4,1.5,4.7,3.2,6.7,5c2.6,2.3,4.8,4.7,6.7,7.2
				c0.1,0.2,0.1,0.5-0.1,0.6C648.1,450.9,648,450.9,647.9,450.9z"/>
			<path d="M636.7,423.5l-5-0.6C632.5,423.7,634.6,425.8,636.7,423.5z"/>
			<path d="M658,424.2l-4.7,0.3C653.8,425,655.8,426.7,658,424.2z"/>
			<path class="st28" d="M654.9,424.9c0,0.2-0.1,0.3-0.3,0.3c-0.2,0-0.3-0.1-0.3-0.3c0-0.2,0.1-0.3,0.3-0.3
				C654.8,424.6,654.9,424.7,654.9,424.9z"/>
			<path class="st28" d="M633.5,423.6c0,0.2-0.1,0.3-0.3,0.3c-0.2,0-0.3-0.1-0.3-0.3c0-0.2,0.1-0.3,0.3-0.3
				C633.3,423.3,633.5,423.4,633.5,423.6z"/>
			<path class="st24" d="M650.7,422.9c0,0-0.1,0-0.1-0.1l-2.4-2.9c-0.1-0.1,0-0.2,0-0.2s0.2,0,0.2,0l2.2,2.7
				c0.3-1.7,0.7-3.2,1.3-4.6c0.6-1.4,1.3-2.6,2.2-3.9c1.7-2.3,3.8-4.1,5.9-5.9c0.6-0.5,1.1-1,1.7-1.5c0.1-0.1,0.2,0,0.2,0
				c0.1,0.1,0,0.2,0,0.2c-0.6,0.5-1.1,1-1.7,1.5c-4.2,3.7-8.2,7.1-9.3,14.5C650.8,422.8,650.8,422.8,650.7,422.9
				C650.7,422.9,650.7,422.9,650.7,422.9z"/>
			<path class="st24" d="M642.7,422.3c-0.1,0-0.1,0-0.1-0.1c-0.1-0.1-0.1-0.3-0.2-0.5c-1-2.1-4.1-8.7-12.4-11.3
				c-0.1,0-0.1-0.1-0.1-0.2c0-0.1,0.1-0.1,0.2-0.1c3.6,1.1,6.7,3.2,9.1,6c2,2.3,3,4.5,3.5,5.5c0,0,0,0.1,0,0.1l0.6-3
				c0-0.1,0.1-0.1,0.2-0.1c0.1,0,0.1,0.1,0.1,0.2l-0.7,3.4C642.9,422.3,642.8,422.3,642.7,422.3
				C642.7,422.3,642.7,422.3,642.7,422.3z"/>
			<path class="st21" d="M603.2,504.5C603.2,504.5,603.2,504.5,603.2,504.5c-3.1-0.5-5.9-1.4-8.5-2.6c-2.1-1-4-2.2-5.7-3.6
				c-2.9-2.4-4.2-4.4-4.3-4.5c-0.1-0.2-0.1-0.5,0.1-0.6c0.2-0.1,0.5-0.1,0.6,0.1l0,0c0,0,1.3,2,4.1,4.3c2.6,2.1,7.1,4.8,13.7,6
				c0.2,0,0.4,0.3,0.4,0.5C603.6,504.4,603.4,504.5,603.2,504.5z"/>
			<path class="st21" d="M567.2,513.7c-0.1,0-0.1,0-0.1-0.1c0-0.1,0-0.2,0.1-0.2c0.6-0.2,1.3-0.5,2-0.6c0.1,0,0.2,0,0.2,0.1
				s0,0.2-0.1,0.2C568.5,513.3,567.8,513.5,567.2,513.7C567.2,513.7,567.2,513.7,567.2,513.7z"/>
			<path class="st21" d="M567.9,512.3c-0.1,0-0.1,0-0.1-0.1c0-0.1,0-0.2,0.1-0.2c0.6-0.2,1.2-0.3,1.8-0.3c0.1,0,0.2,0.1,0.2,0.1
				c0,0.1-0.1,0.2-0.1,0.2C569.1,512,568.5,512.1,567.9,512.3C567.9,512.3,567.9,512.3,567.9,512.3z"/>
			<path class="st21" d="M590.2,509c-0.1,0-0.1-0.1-0.1-0.1v-3.4c0-0.1,0.1-0.1,0.1-0.1c0.1,0,0.1,0.1,0.1,0.1v3.4
				C590.4,508.9,590.3,509,590.2,509z"/>
			<path class="st21" d="M591.7,507.5c0,0-0.1,0-0.1-0.1c-0.4-0.6-0.5-1.3-0.3-1.9c0-0.1,0.1-0.1,0.2-0.1c0.1,0,0.1,0.1,0.1,0.2
				c-0.2,0.5-0.1,1.1,0.3,1.7C591.9,507.3,591.9,507.4,591.7,507.5C591.8,507.5,591.7,507.5,591.7,507.5z"/>
			<path class="st21" d="M587.7,510.8C587.7,510.8,587.6,510.8,587.7,510.8c-0.7-0.6-1-1.4-0.9-2.4c0-0.1,0.1-0.1,0.2-0.1
				c0.1,0,0.1,0.1,0.1,0.2c-0.1,0.9,0.1,1.6,0.7,2.1c0.1,0.1,0.1,0.1,0,0.2C587.8,510.7,587.7,510.8,587.7,510.8z"/>
			<path class="st21" d="M648.8,412.9C648.8,412.9,648.8,412.9,648.8,412.9c-0.1,0-0.2-0.1-0.1-0.2c0-1.1,0.4-2.1,1.1-3.1
				c0-0.1,0.1-0.1,0.2,0s0.1,0.1,0,0.2c-0.6,0.9-1,1.9-1,2.9C649,412.8,648.9,412.9,648.8,412.9z"/>
			<path class="st21" d="M650.5,412.3C650.5,412.3,650.5,412.3,650.5,412.3c-0.1,0-0.2-0.1-0.1-0.2c0-0.8,0.3-1.7,0.8-2.6
				c0-0.1,0.1-0.1,0.2-0.1c0.1,0,0.1,0.1,0.1,0.2c-0.5,0.9-0.7,1.7-0.7,2.5C650.6,412.2,650.5,412.3,650.5,412.3z"/>
			<path class="st21" d="M652.5,411.1C652.5,411.1,652.5,411.1,652.5,411.1c-0.1,0-0.2-0.1-0.1-0.2c0.1-0.5,0.2-1.1,0.5-1.5
				c0-0.1,0.1-0.1,0.2-0.1c0.1,0,0.1,0.1,0.1,0.2c-0.2,0.5-0.4,0.9-0.4,1.4C652.7,411.1,652.6,411.1,652.5,411.1z"/>
			<path class="st21" d="M653.7,411.3C653.7,411.3,653.7,411.3,653.7,411.3c-0.2-0.1-0.2-0.2-0.1-0.2c0.6-0.7,1.2-1.3,2-1.8
				c0.1,0,0.2,0,0.2,0c0,0.1,0,0.2,0,0.2c-0.7,0.5-1.4,1.1-1.9,1.8C653.8,411.2,653.8,411.3,653.7,411.3z"/>
			<path class="st21" d="M647.9,413.5c-0.1,0-0.1-0.1-0.1-0.1v-2.2c0-0.1,0.1-0.1,0.1-0.1s0.1,0.1,0.1,0.1v2.2
				C648.1,413.4,648,413.5,647.9,413.5z"/>
			<path class="st21" d="M656.3,414.1c-0.1,0-0.1-0.1-0.1-0.1c0-0.1,0-0.2,0.1-0.2c0.3-0.1,0.7-0.1,1.1-0.1c0.5,0,1-0.1,1.4-0.2
				c0.1,0,0.2,0,0.2,0.1c0,0.1,0,0.2-0.1,0.2c-0.5,0.1-1,0.1-1.5,0.2C657,414,656.6,414,656.3,414.1
				C656.3,414.1,656.3,414.1,656.3,414.1z"/>
			<path class="st21" d="M658.8,415.1h-1.9c-0.1,0-0.1-0.1-0.1-0.1s0.1-0.1,0.1-0.1h1.9c0.1,0,0.1,0.1,0.1,0.1
				S658.9,415.1,658.8,415.1z"/>
			<path class="st21" d="M609.9,418.1c-0.1,0-0.1-0.1-0.1-0.1c0-0.1,0-0.2,0.1-0.2c0.6-0.1,1.3-0.2,1.9-0.3c0.1,0,0.2,0,0.2,0.1
				c0,0.1,0,0.2-0.1,0.2C611.2,417.9,610.5,418,609.9,418.1C609.9,418.1,609.9,418.1,609.9,418.1z"/>
			<path class="st21" d="M610,417.4h-2.1c-0.1,0-0.1-0.1-0.1-0.1c0-0.1,0.1-0.1,0.1-0.1h2.1c0.1,0,0.1,0.1,0.1,0.1
				C610.2,417.3,610.1,417.4,610,417.4z"/>
			<path class="st21" d="M611.2,416.2h-2.8c-0.1,0-0.1-0.1-0.1-0.1s0.1-0.1,0.1-0.1h2.8c0.1,0,0.1,0.1,0.1,0.1
				S611.3,416.2,611.2,416.2z"/>
			<path class="st21" d="M654.2,416.3c-0.1,0-0.1-0.1-0.1-0.1c0-0.1,0.1-0.2,0.1-0.2c0.7,0,1.5-0.2,2.2-0.4c1-0.2,2.1-0.5,3.2-0.4
				c0.1,0,0.1,0.1,0.1,0.2c0,0.1-0.1,0.1-0.2,0.1c-1-0.1-2.1,0.1-3.1,0.4C655.7,416.1,654.9,416.3,654.2,416.3
				C654.2,416.3,654.2,416.3,654.2,416.3z"/>
			<path class="st21" d="M608.1,419.4c-0.1,0-0.1-0.1-0.1-0.1c0-0.1,0.1-0.1,0.1-0.1c1.3,0,3.1-0.2,4.3-0.6c0.1,0,0.2,0,0.2,0.1
				c0,0.1,0,0.2-0.1,0.2C611.3,419.3,609.4,419.4,608.1,419.4C608.1,419.4,608.1,419.4,608.1,419.4z"/>
			<path class="st21" d="M610.6,414.8h-2.1c-0.1,0-0.1-0.1-0.1-0.1c0-0.1,0.1-0.1,0.1-0.1h2.1c0.1,0,0.1,0.1,0.1,0.1
				C610.7,414.8,610.7,414.8,610.6,414.8z"/>
			<path class="st21" d="M575.3,503.8C575.3,503.8,575.3,503.8,575.3,503.8c-1.1-0.4-2-1.1-2.6-2c0-0.1,0-0.2,0-0.2
				c0.1,0,0.2,0,0.2,0c0.6,0.9,1.4,1.5,2.4,1.9c0.1,0,0.1,0.1,0.1,0.2C575.4,503.7,575.4,503.8,575.3,503.8z"/>
			<path class="st21" d="M577.5,500.8c-0.1,0-0.1,0-0.1-0.1c-0.3-0.6-0.8-1-1.4-1.1c-0.1,0-0.1-0.1-0.1-0.2c0-0.1,0.1-0.1,0.2-0.1
				c0.7,0.1,1.3,0.6,1.6,1.3C577.7,500.7,577.7,500.8,577.5,500.8C577.6,500.8,577.6,500.8,577.5,500.8z"/>
		</g>
	</g>
</g>
<g id="skeleton_1_">
	<polygon class="st29" points="518.8,349.5 569.1,565.3 685.5,564.5 731.7,349.5 	"/>
	<polyline class="st29" points="517.8,349.5 415.1,349.5 251.8,355.8 	"/>
	<polyline class="st29" points="733.2,349.1 836.4,349.1 999.7,355.5 	"/>
	<polyline class="st29" points="569.1,565.3 575.5,725.5 575.5,933.5 	"/>
	<polyline class="st29" points="685.5,564.5 685.5,725.5 685.5,933.5 	"/>
	<polyline class="st29" points="624.5,170 604.7,172.5 592.2,182 583.6,196.1 581.1,205.4 580.3,217.1 580.3,226.6 581.1,248.3 
		587.9,268.3 599.5,280.8 609.5,287.5 624.5,290.7 639.3,287.9 649.3,281.2 660.9,268.6 667.7,248.6 668.5,227 668.5,217.4 
		667.7,205.7 665.2,196.5 657,182 644.4,172.5 624.5,170 	"/>
	<polyline class="st29" points="588.5,206.9 592.5,203.2 598.7,202.2 606,202.2 615.8,206.2 	"/>
	<polygon class="st29" points="594.7,215.1 599.9,211.4 606.2,211.4 611.4,215.6 606.2,216.6 599.9,217.4 	"/>
	<polyline class="st29" points="613,233.2 618.2,233.2 623.7,234 623.7,228.7 623.7,221.6 623.7,216.1 623.7,210.3 	"/>
	<polyline class="st29" points="660,206.5 656,203.6 649.7,202.1 642.4,202.5 632.4,205.7 	"/>
	<polygon class="st29" points="654.1,215.1 648.8,211.4 642.5,211.4 637.4,215.6 642.5,216.6 648.8,217.4 	"/>
	<polyline class="st29" points="634.1,233.2 629.1,233.2 623.7,234 	"/>
	<polygon class="st29" points="607,255.3 613.9,251.9 620.4,250.8 624.5,251.7 628.7,250.8 635.1,251.9 642,255.3 635.6,261.6 
		628.5,264.4 624.5,264.9 620.4,264.4 613.4,261.6 	"/>
	<polyline class="st29" points="607,255.3 610.6,255.6 620.6,254.8 624.5,255.3 628.5,254.8 638.4,255.6 642,255.3 	"/>
	<polyline class="st29" points="607,255.3 610.6,255.6 620.6,257.7 624.5,258.5 628.5,257.7 638.4,255.6 642,255.3 	"/>
	<circle id="rightShoulder" cx="518.9" cy="349.2" r="8.2"/>
	<circle id="rightElbow" cx="415.4" cy="349.3" r="8.2"/>
	<circle id="rightWrist" cx="252" cy="355.7" r="8.2"/>
	<circle id="rightHip" cx="569.2" cy="565" r="8.2"/>
	<circle id="rightKnee" cx="575.6" cy="725.2" r="8.2"/>
	<circle id="rightAnkle" cx="575.6" cy="933.2" r="8.2"/>
	<circle id="leftElbow" cx="836.2" cy="348.9" r="8.2"/>
	<circle id="leftWrist" cx="999.6" cy="355.2" r="8.2"/>
	<circle id="leftHip" cx="685.6" cy="564.2" r="8.2"/>
	<circle id="leftKnee" cx="685.6" cy="725.2" r="8.2"/>
	<circle id="leftAnkle" cx="685.6" cy="933.2" r="8.2"/>
	<circle id="rightEye0" cx="594.7" cy="215.1" r="0.8"/>
	<circle id="rightBrow1" cx="592.5" cy="203.2" r="0.8"/>
	<circle id="rightBrow4" cx="615.8" cy="206.2" r="0.8"/>
	<circle id="nose1" cx="623.7" cy="216.1" r="0.8"/>
	<circle id="rightBrow3" cx="606" cy="202.2" r="0.8"/>
	<circle id="rightEye1" cx="599.9" cy="211.4" r="0.8"/>
	<circle id="rightBrow0" cx="588.5" cy="206.9" r="0.8"/>
	<circle id="rightBrow2" cx="598.7" cy="202.2" r="0.8"/>
	<circle id="rightEye5" cx="599.9" cy="217.4" r="0.8"/>
	<circle id="rightEye2" cx="606.2" cy="211.4" r="0.8"/>
	<circle id="rightEye3" cx="611.4" cy="215.6" r="0.8"/>
	<circle id="nose0" cx="623.7" cy="210.3" r="0.8"/>
	<circle id="nose3" cx="623.7" cy="228.7" r="0.8"/>
	<circle id="rightNose0" cx="613" cy="233.2" r="0.8"/>
	<circle id="rightMouthCorner" cx="607" cy="255.3" r="0.8"/>
	<circle id="rightNose1" cx="618.2" cy="233.2" r="0.8"/>
	<circle id="rightUpperLipTop0" cx="613.9" cy="251.9" r="0.8"/>
	<circle id="nose2" cx="623.7" cy="221.6" r="0.8"/>
	<circle id="nose4" cx="623.7" cy="234" r="0.8"/>
	<circle id="upperLipTopMid" cx="624.5" cy="251.7" r="0.8"/>
	<circle id="rightUpperLipTop1" cx="620.4" cy="250.8" r="0.8"/>
	<path id="rightMiddleLip" d="M610.6,254.8c0.4,0,0.8,0.4,0.8,0.8c0,0.4-0.4,0.8-0.8,0.8s-0.8-0.4-0.8-0.8S610.2,254.8,610.6,254.8z
		"/>
	<circle id="lowerLipBottomMid" cx="624.5" cy="264.9" r="0.8"/>
	<circle id="upperLipBottomMid" cx="624.5" cy="255.3" r="0.8"/>
	<circle id="lowerLipTopMid" cx="624.5" cy="258.4" r="0.8"/>
	<circle id="rightUpperLipBottom1" cx="620.6" cy="254.8" r="0.8"/>
	<circle id="rightLowerLipTop0" cx="620.6" cy="257.7" r="0.8"/>
	<circle id="rightLowerLipBottom1" cx="620.4" cy="264.4" r="0.8"/>
	<circle id="rightLowerLipBottom0" cx="613.4" cy="261.6" r="0.8"/>
	<circle id="rightEye4" cx="606.2" cy="216.6" r="0.8"/>
	<circle id="jawMid" cx="624.5" cy="290.7" r="0.8"/>
	<circle id="rightJaw7" cx="609.5" cy="287.5" r="0.8"/>
	<circle id="rightJaw6" cx="599.5" cy="280.8" r="0.8"/>
	<circle id="rightJaw5" cx="587.9" cy="268.3" r="0.8"/>
	<circle id="rightJaw4" cx="581.1" cy="248.3" r="0.8"/>
	<circle id="rightJaw3" cx="580.3" cy="226.6" r="0.8"/>
	<circle id="rightJaw2" cx="580.3" cy="217.1" r="0.8"/>
	<circle id="rightJaw1" cx="581.1" cy="205.4" r="0.8"/>
	<circle id="rightJaw0" cx="583.6" cy="196.1" r="0.8"/>
	<circle id="topMid" cx="624.7" cy="170" r="0.8"/>
	<circle id="leftTop0" cx="644.4" cy="172.5" r="0.8"/>
	<circle id="leftTop1" cx="657" cy="182" r="0.8"/>
	<circle id="leftEye0" cx="654.3" cy="215.1" r="0.8"/>
	<circle id="leftBrow1" cx="656.2" cy="203.6" r="0.8"/>
	<circle id="leftBrow4" cx="632.6" cy="205.7" r="0.8"/>
	<circle id="leftBrow3" cx="642.6" cy="202.5" r="0.8"/>
	<circle id="leftEye1" cx="649.1" cy="211.4" r="0.8"/>
	<circle id="leftBrow0" cx="660.2" cy="206.5" r="0.8"/>
	<circle id="leftBrow2" cx="649.9" cy="202.1" r="0.8"/>
	<circle id="leftEye5" cx="649.1" cy="217.4" r="0.8"/>
	<circle id="leftEye2" cx="642.8" cy="211.4" r="0.8"/>
	<circle id="leftEye3" cx="637.6" cy="215.6" r="0.8"/>
	<circle id="leftNose0" cx="634.1" cy="233.2" r="0.8"/>
	<circle id="leftMouthCorner" cx="642" cy="255.3" r="0.8"/>
	<circle id="leftNose1" cx="629.3" cy="233.2" r="0.8"/>
	<circle id="leftUpperLipTop0" cx="635.1" cy="251.9" r="0.8"/>
	<circle id="leftUpperLipTop1" cx="628.7" cy="250.8" r="0.8"/>
	<path id="leftMiddleLip" d="M638.4,254.8c0.4,0,0.8,0.4,0.8,0.8c0,0.4-0.4,0.8-0.8,0.8s-0.8-0.4-0.8-0.8S638,254.8,638.4,254.8z"/>
	<circle id="leftUpperLipBottom1" cx="628.5" cy="254.8" r="0.8"/>
	<circle id="leftLowerLipTop0" cx="628.5" cy="257.7" r="0.8"/>
	<circle id="leftLowerLipBottom1" cx="628.7" cy="264.4" r="0.8"/>
	<circle id="leftLowerLipBottom0" cx="635.6" cy="261.6" r="0.8"/>
	<circle id="leftEye4" cx="642.8" cy="216.6" r="0.8"/>
	<circle id="leftJaw7" cx="639.3" cy="287.9" r="0.8"/>
	<circle id="leftJaw6" cx="649.3" cy="281.2" r="0.8"/>
	<circle id="leftJaw5" cx="660.9" cy="268.6" r="0.8"/>
	<circle id="leftJaw4" cx="667.7" cy="248.6" r="0.8"/>
	<circle id="leftJaw3" cx="668.5" cy="227" r="0.8"/>
	<circle id="leftJaw2" cx="668.5" cy="217.4" r="0.8"/>
	<circle id="leftJaw1" cx="667.7" cy="205.7" r="0.8"/>
	<circle id="leftJaw0" cx="665.2" cy="196.5" r="0.8"/>
	<circle id="rightTop0" cx="604.8" cy="172.5" r="0.8"/>
	<circle id="rightTop1" cx="592.2" cy="182" r="0.8"/>
	<circle id="leftShoulder" cx="731.8" cy="349.2" r="8.2"/>
</g>
</svg>
